<svg width="248" height="58" viewBox="0 0 248 58" fill="none" xmlns="http://www.w3.org/2000/svg">
<g filter="url(#filter0_d_606_139)">
<g clip-path="url(#clip0_606_139)">
<path d="M131.133 17.4942C131.133 19.7907 126.759 21.6522 121.365 21.6522C115.97 21.6522 111.597 19.7906 111.597 17.4942C111.597 15.1963 115.97 13.3332 121.365 13.3332C126.759 13.3331 131.133 15.1962 131.133 17.4942Z" fill="white"/>
<path d="M111.597 45.8404C111.597 48.1384 115.97 50 121.365 50C126.759 50 131.133 48.1384 131.133 45.8404V44.8089C131.133 44.4915 130.974 44.1955 130.707 44.0185C130.443 43.8445 130.107 43.814 129.814 43.9391C129.814 43.9391 126.759 45.8266 121.365 45.8266C115.97 45.8266 112.914 43.9391 112.914 43.9391C112.622 43.814 112.286 43.8444 112.021 44.0185C111.755 44.1955 111.597 44.4915 111.597 44.8089L111.597 45.8404Z" fill="white"/>
<path d="M111.597 38.7741C111.597 41.0721 115.97 42.9321 121.365 42.9321C126.759 42.9321 131.133 41.0721 131.133 38.7741V37.7411C131.133 37.4237 130.974 37.1277 130.707 36.9507C130.443 36.7768 130.107 36.7462 129.814 36.8713C129.814 36.8713 126.759 38.7588 121.365 38.7588C115.97 38.7588 112.914 36.8713 112.914 36.8713C112.622 36.7462 112.286 36.7767 112.021 36.9507C111.755 37.1277 111.597 37.4237 111.597 37.7411L111.597 38.7741Z" fill="white"/>
<path d="M111.597 31.7078C111.597 34.0058 115.97 35.8658 121.365 35.8658C126.759 35.8658 131.133 34.0058 131.133 31.7078V30.6732C131.133 30.3559 130.974 30.0599 130.707 29.8828C130.443 29.7089 130.107 29.6783 129.814 29.8034C129.814 29.8034 126.759 31.6925 121.365 31.6925C115.97 31.6925 112.914 29.8034 112.914 29.8034C112.622 29.6783 112.286 29.7088 112.021 29.8828C111.755 30.0599 111.597 30.3559 111.597 30.6732L111.597 31.7078Z" fill="white"/>
<path d="M111.597 24.6399C111.597 26.9379 115.97 28.7995 121.365 28.7995C126.759 28.7995 131.133 26.9379 131.133 24.6399V23.6084C131.133 23.2894 130.974 22.995 130.707 22.818C130.443 22.644 130.107 22.6135 129.814 22.7386C129.814 22.7386 126.759 24.6246 121.365 24.6246C115.97 24.6246 112.914 22.7386 112.914 22.7386C112.622 22.6135 112.286 22.6439 112.021 22.818C111.755 22.995 111.597 23.2894 111.597 23.6084L111.597 24.6399Z" fill="white"/>
<path d="M146.327 9.12167C146.327 11.4166 141.954 13.2782 136.56 13.2782C131.164 13.2782 126.791 11.4166 126.791 9.12167C126.791 6.82216 131.164 4.9621 136.56 4.9621C141.954 4.96219 146.327 6.82216 146.327 9.12167Z" fill="white"/>
<path d="M146.324 36.4319V37.4649C146.324 39.7629 141.951 41.6229 136.565 41.6229C135.298 41.6229 134.099 41.5223 132.991 41.336V37.1582C134.033 37.3352 135.225 37.4573 136.565 37.4573C141.951 37.4573 145.011 35.5683 145.011 35.5683C145.3 35.437 145.635 35.4736 145.905 35.6415C146.166 35.8185 146.324 36.1176 146.324 36.4319Z" fill="white"/>
<path d="M146.324 29.3701V30.4047C146.324 32.7012 141.951 34.5612 136.565 34.5612C135.298 34.5612 134.099 34.4605 132.991 34.2743V30.0873C134.033 30.2643 135.225 30.3864 136.565 30.3864C141.951 30.3864 145.011 28.4974 145.011 28.4974C145.3 28.3768 145.635 28.4027 145.905 28.5798C146.166 28.7567 146.324 29.0467 146.324 29.3701Z" fill="white"/>
<path d="M146.324 22.3022V23.3338C146.324 25.6317 141.951 27.4934 136.565 27.4934C135.298 27.4934 134.099 27.3896 132.991 27.2034V23.0164C134.033 23.1935 135.225 23.3155 136.565 23.3155C141.951 23.3155 145.011 21.4265 145.011 21.4265C145.3 21.306 145.635 21.3334 145.905 21.5119C146.166 21.6858 146.324 21.9849 146.324 22.3022Z" fill="white"/>
<path d="M146.324 15.2314V16.2629C146.324 18.5608 141.951 20.4209 136.565 20.4209C135.298 20.4209 134.099 20.3187 132.991 20.134V17.4911C132.991 16.9144 132.871 16.3849 132.639 15.8904C133.756 16.1041 135.066 16.2536 136.565 16.2536C141.159 16.2536 144.063 14.8773 144.815 14.4775C144.946 14.4042 145.01 14.3646 145.01 14.3646C145.3 14.2349 145.635 14.273 145.905 14.4394C146.025 14.5233 146.127 14.6271 146.193 14.7552C146.277 14.8956 146.324 15.0635 146.324 15.2314Z" fill="white"/>
<path d="M121.21 4.15957C121.21 6.45606 116.835 8.31611 111.441 8.31611C106.047 8.31611 101.674 6.45596 101.674 4.15957C101.674 1.86162 106.047 0 111.441 0C116.835 0 121.21 1.86162 121.21 4.15957Z" fill="white"/>
<path d="M109.733 32.4219V36.5997C105.156 36.2549 101.677 34.5535 101.677 32.5073V31.4743C101.677 31.1585 101.835 30.8609 102.096 30.6824C102.365 30.5069 102.701 30.4795 102.989 30.6C102.989 30.6 105.408 32.0877 109.733 32.4219Z" fill="white"/>
<path d="M109.733 25.3632V29.5288C105.156 29.1854 101.677 27.4841 101.677 25.4364V24.4049C101.677 24.0875 101.835 23.7884 102.096 23.6144C102.365 23.4451 102.701 23.4069 102.989 23.5382C102.989 23.5382 105.408 25.0274 109.733 25.3632Z" fill="white"/>
<path d="M109.733 18.2923V22.4687C105.156 22.1238 101.677 20.4209 101.677 18.3747V17.3432C101.677 17.0258 101.835 16.7282 102.096 16.5527C102.365 16.3742 102.701 16.3468 102.989 16.4673C102.989 16.4673 105.408 17.9566 109.733 18.2923Z" fill="white"/>
<path d="M121.205 10.2723V11.3038C121.205 11.3618 121.205 11.4167 121.196 11.4717C116.582 11.5113 111.947 12.8587 110.339 15.4359C105.464 15.2024 101.677 13.4432 101.677 11.3038V10.2723C101.677 9.95487 101.835 9.65888 102.096 9.48183C102.365 9.30478 102.701 9.27733 102.989 9.40702C102.989 9.40702 106.05 11.2945 111.446 11.2945C116.832 11.2945 119.893 9.40702 119.893 9.40702C120.051 9.33222 120.229 9.31395 120.404 9.33222C120.535 9.35058 120.665 9.40702 120.787 9.48173C121.01 9.63124 121.149 9.86317 121.187 10.1226C121.205 10.17 121.205 10.2249 121.205 10.2723Z" fill="white"/>
<path d="M131.133 17.4942C131.133 19.7907 126.759 21.6522 121.365 21.6522C115.97 21.6522 111.597 19.7906 111.597 17.4942C111.597 15.1963 115.97 13.3332 121.365 13.3332C126.759 13.3331 131.133 15.1962 131.133 17.4942Z" fill="white"/>
</g>
<line x1="169" y1="24" x2="244" y2="24" stroke="white" stroke-width="2"/>
<line x1="4" y1="24" x2="79" y2="24" stroke="white" stroke-width="2"/>
</g>
<defs>
<filter id="filter0_d_606_139" x="0" y="0" width="248" height="58" filterUnits="userSpaceOnUse" color-interpolation-filters="sRGB">
<feFlood flood-opacity="0" result="BackgroundImageFix"/>
<feColorMatrix in="SourceAlpha" type="matrix" values="0 0 0 0 0 0 0 0 0 0 0 0 0 0 0 0 0 0 127 0" result="hardAlpha"/>
<feOffset dy="4"/>
<feGaussianBlur stdDeviation="2"/>
<feComposite in2="hardAlpha" operator="out"/>
<feColorMatrix type="matrix" values="0 0 0 0 0 0 0 0 0 0 0 0 0 0 0 0 0 0 0.25 0"/>
<feBlend mode="normal" in2="BackgroundImageFix" result="effect1_dropShadow_606_139"/>
<feBlend mode="normal" in="SourceGraphic" in2="effect1_dropShadow_606_139" result="shape"/>
</filter>
<clipPath id="clip0_606_139">
<rect width="50" height="50" fill="white" transform="translate(99)"/>
</clipPath>
</defs>
</svg>
