<svg width="60" height="60" viewBox="0 0 60 60" fill="none" xmlns="http://www.w3.org/2000/svg">
<path d="M25.8528 23.1588C25.7327 23.1606 25.6134 23.1385 25.502 23.0937C25.3905 23.049 25.289 22.9826 25.2035 22.8983C25.1179 22.814 25.05 22.7135 25.0036 22.6027C24.9572 22.4919 24.9333 22.373 24.9333 22.2529C24.9333 22.1328 24.9572 22.0139 25.0036 21.9031C25.05 21.7923 25.1179 21.6918 25.2035 21.6075C25.289 21.5232 25.3905 21.4568 25.502 21.4121C25.6134 21.3673 25.7327 21.3452 25.8528 21.347C26.0907 21.3505 26.3177 21.4475 26.4847 21.617C26.6517 21.7865 26.7453 22.0149 26.7453 22.2529C26.7453 22.4909 26.6517 22.7193 26.4847 22.8888C26.3177 23.0583 26.0907 23.1553 25.8528 23.1588ZM18.6528 7.9588C18.7729 7.96058 18.8921 7.93847 19.0036 7.89374C19.1151 7.84902 19.2165 7.78257 19.3021 7.69828C19.3877 7.61398 19.4556 7.51351 19.502 7.40271C19.5484 7.29192 19.5722 7.17301 19.5722 7.0529C19.5722 6.93279 19.5484 6.81387 19.502 6.70308C19.4556 6.59228 19.3877 6.49181 19.3021 6.40752C19.2165 6.32322 19.1151 6.25677 19.0036 6.21205C18.8921 6.16733 18.7729 6.14521 18.6528 6.147C18.4148 6.15053 18.1879 6.24753 18.0209 6.41703C17.8539 6.58654 17.7602 6.81494 17.7602 7.0529C17.7602 7.29085 17.8539 7.51925 18.0209 7.68876C18.1879 7.85826 18.4148 7.95526 18.6528 7.9588ZM7.45277 26.147C7.3338 26.147 7.21599 26.1705 7.10607 26.216C6.99616 26.2615 6.89629 26.3283 6.81217 26.4124C6.72805 26.4966 6.66132 26.5965 6.6158 26.7064C6.57028 26.8163 6.54686 26.9341 6.54688 27.0531C6.54689 27.1721 6.57034 27.2899 6.61588 27.3998C6.66142 27.5097 6.72817 27.6096 6.81231 27.6937C6.89645 27.7778 6.99633 27.8446 7.10626 27.8901C7.21618 27.9356 7.334 27.959 7.45297 27.959C7.69326 27.959 7.9237 27.8635 8.09358 27.6936C8.26347 27.5236 8.3589 27.2932 8.35888 27.0529C8.35885 26.8126 8.26337 26.5822 8.09344 26.4123C7.92352 26.2424 7.69306 26.147 7.45277 26.147ZM10.2528 32.253C10.2528 29.6062 12.406 27.453 15.0528 27.453C17.6996 27.453 19.8528 29.6062 19.8528 32.253C19.8528 34.8998 17.6996 37.053 15.0528 37.053C12.406 37.053 10.2528 34.8998 10.2528 32.253ZM11.8528 32.253C11.8528 34.0178 13.288 35.453 15.0528 35.453C16.8176 35.453 18.2528 34.0178 18.2528 32.253C18.2528 30.4882 16.8176 29.053 15.0528 29.053C13.288 29.053 11.8528 30.4882 11.8528 32.253ZM53.4528 32.253C53.4528 34.8998 51.2996 37.053 48.6528 37.053C46.006 37.053 43.8528 34.8998 43.8528 32.253C43.8528 29.6062 46.006 27.453 48.6528 27.453C51.2996 27.453 53.4528 29.606 53.4528 32.253ZM51.8528 32.253C51.8528 30.4882 50.4176 29.053 48.6528 29.053C46.888 29.053 45.4528 30.4882 45.4528 32.253C45.4528 34.0178 46.888 35.453 48.6528 35.453C50.4176 35.453 51.8528 34.0178 51.8528 32.253ZM53.4528 49.053C53.4528 51.6998 51.2996 53.853 48.6528 53.853C46.279 53.853 44.3076 52.1196 43.925 49.853H36.5804C36.1978 52.1196 34.2264 53.853 31.8526 53.853C29.4788 53.853 27.5074 52.1196 27.1248 49.853H19.7804C19.3978 52.1196 17.4264 53.853 15.0526 53.853C12.4058 53.853 10.2526 51.6998 10.2526 49.053C10.2526 46.4062 12.4058 44.253 15.0526 44.253C16.0876 44.253 17.0446 44.5856 17.8294 45.1448L27.9444 35.0298C27.3852 34.245 27.0526 33.288 27.0526 32.253C27.0526 29.6062 29.2058 27.453 31.8526 27.453C32.8876 27.453 33.8446 27.7856 34.6294 28.3448L44.7444 18.2298C44.3249 17.6415 44.0447 16.9655 43.9248 16.253H36.5802C36.1976 18.5196 34.2262 20.253 31.8524 20.253C29.4786 20.253 27.5072 18.5196 27.1246 16.253H19.7804C19.3978 18.5196 17.4264 20.253 15.0526 20.253C12.4058 20.253 10.2526 18.0998 10.2526 15.453C10.2526 12.8062 12.4058 10.653 15.0526 10.653C17.4264 10.653 19.3978 12.3864 19.7804 14.653H27.125C27.5076 12.3864 29.479 10.653 31.8528 10.653C34.2266 10.653 36.198 12.3864 36.5806 14.653H43.9252C44.3078 12.3864 46.2792 10.653 48.653 10.653C51.2998 10.653 53.453 12.8062 53.453 15.453C53.453 18.0998 51.2998 20.253 48.653 20.253C47.618 20.253 46.661 19.9204 45.8762 19.3612L35.7612 29.4762C36.3204 30.261 36.653 31.218 36.653 32.253C36.653 34.8998 34.4998 37.053 31.853 37.053C30.818 37.053 29.861 36.7204 29.0762 36.1612L18.9608 46.276C19.3802 46.8643 19.6605 47.5403 19.7804 48.2528H27.125C27.5076 45.9862 29.479 44.2528 31.8528 44.2528C34.2266 44.2528 36.198 45.9862 36.5806 48.2528H43.9252C44.3078 45.9862 46.2792 44.2528 48.653 44.2528C51.2996 44.253 53.4528 46.406 53.4528 49.053ZM18.2528 15.453C18.2528 13.6882 16.8176 12.253 15.0528 12.253C13.288 12.253 11.8528 13.6882 11.8528 15.453C11.8528 17.2178 13.288 18.653 15.0528 18.653C16.8176 18.653 18.2528 17.2178 18.2528 15.453ZM35.0528 15.453C35.0528 13.6882 33.6176 12.253 31.8528 12.253C30.088 12.253 28.6528 13.6882 28.6528 15.453C28.6528 17.2178 30.088 18.653 31.8528 18.653C33.6176 18.653 35.0528 17.2178 35.0528 15.453ZM35.0528 49.053C35.0528 47.2882 33.6176 45.853 31.8528 45.853C30.088 45.853 28.6528 47.2882 28.6528 49.053C28.6528 50.8178 30.088 52.253 31.8528 52.253C33.6176 52.253 35.0528 50.8178 35.0528 49.053ZM51.8528 49.053C51.8528 47.2882 50.4176 45.853 48.6528 45.853C46.888 45.853 45.4528 47.2882 45.4528 49.053C45.4528 50.8178 46.888 52.253 48.6528 52.253C50.4176 52.253 51.8528 50.8178 51.8528 49.053Z" fill="url(#paint0_linear_510_517)"/>
<defs>
<linearGradient id="paint0_linear_510_517" x1="11.6602" y1="52.4456" x2="52.0454" y2="12.0604" gradientUnits="userSpaceOnUse">
<stop offset="0.0001" stop-color="#8F16FF"/>
<stop offset="1" stop-color="#107EFF"/>
</linearGradient>
</defs>
</svg>
