<svg width="155" height="60" viewBox="0 0 155 60" fill="none" xmlns="http://www.w3.org/2000/svg">
<path d="M25.8528 23.1588C25.7327 23.1606 25.6134 23.1385 25.502 23.0937C25.3905 23.049 25.289 22.9826 25.2035 22.8983C25.1179 22.814 25.05 22.7135 25.0036 22.6027C24.9572 22.4919 24.9333 22.373 24.9333 22.2529C24.9333 22.1328 24.9572 22.0139 25.0036 21.9031C25.05 21.7923 25.1179 21.6918 25.2035 21.6075C25.289 21.5232 25.3905 21.4568 25.502 21.4121C25.6134 21.3673 25.7327 21.3452 25.8528 21.347C26.0907 21.3505 26.3177 21.4475 26.4847 21.617C26.6517 21.7865 26.7453 22.0149 26.7453 22.2529C26.7453 22.4909 26.6517 22.7193 26.4847 22.8888C26.3177 23.0583 26.0907 23.1553 25.8528 23.1588ZM18.6528 7.9588C18.7729 7.96058 18.8921 7.93847 19.0036 7.89374C19.1151 7.84902 19.2165 7.78257 19.3021 7.69828C19.3877 7.61398 19.4556 7.51351 19.502 7.40271C19.5484 7.29192 19.5722 7.17301 19.5722 7.0529C19.5722 6.93279 19.5484 6.81387 19.502 6.70308C19.4556 6.59228 19.3877 6.49181 19.3021 6.40752C19.2165 6.32322 19.1151 6.25677 19.0036 6.21205C18.8921 6.16733 18.7729 6.14521 18.6528 6.147C18.4148 6.15053 18.1879 6.24753 18.0209 6.41703C17.8539 6.58654 17.7602 6.81494 17.7602 7.0529C17.7602 7.29085 17.8539 7.51925 18.0209 7.68876C18.1879 7.85826 18.4148 7.95526 18.6528 7.9588ZM7.45277 26.147C7.3338 26.147 7.21599 26.1705 7.10607 26.216C6.99616 26.2615 6.89629 26.3283 6.81217 26.4124C6.72805 26.4966 6.66132 26.5965 6.6158 26.7064C6.57028 26.8163 6.54686 26.9341 6.54688 27.0531C6.54689 27.1721 6.57034 27.2899 6.61588 27.3998C6.66142 27.5097 6.72817 27.6096 6.81231 27.6937C6.89645 27.7778 6.99633 27.8446 7.10626 27.8901C7.21618 27.9356 7.334 27.959 7.45297 27.959C7.69326 27.959 7.9237 27.8635 8.09358 27.6936C8.26347 27.5236 8.3589 27.2932 8.35888 27.0529C8.35885 26.8126 8.26337 26.5822 8.09344 26.4123C7.92352 26.2424 7.69306 26.147 7.45277 26.147ZM10.2528 32.253C10.2528 29.6062 12.406 27.453 15.0528 27.453C17.6996 27.453 19.8528 29.6062 19.8528 32.253C19.8528 34.8998 17.6996 37.053 15.0528 37.053C12.406 37.053 10.2528 34.8998 10.2528 32.253ZM11.8528 32.253C11.8528 34.0178 13.288 35.453 15.0528 35.453C16.8176 35.453 18.2528 34.0178 18.2528 32.253C18.2528 30.4882 16.8176 29.053 15.0528 29.053C13.288 29.053 11.8528 30.4882 11.8528 32.253ZM53.4528 32.253C53.4528 34.8998 51.2996 37.053 48.6528 37.053C46.006 37.053 43.8528 34.8998 43.8528 32.253C43.8528 29.6062 46.006 27.453 48.6528 27.453C51.2996 27.453 53.4528 29.606 53.4528 32.253ZM51.8528 32.253C51.8528 30.4882 50.4176 29.053 48.6528 29.053C46.888 29.053 45.4528 30.4882 45.4528 32.253C45.4528 34.0178 46.888 35.453 48.6528 35.453C50.4176 35.453 51.8528 34.0178 51.8528 32.253ZM53.4528 49.053C53.4528 51.6998 51.2996 53.853 48.6528 53.853C46.279 53.853 44.3076 52.1196 43.925 49.853H36.5804C36.1978 52.1196 34.2264 53.853 31.8526 53.853C29.4788 53.853 27.5074 52.1196 27.1248 49.853H19.7804C19.3978 52.1196 17.4264 53.853 15.0526 53.853C12.4058 53.853 10.2526 51.6998 10.2526 49.053C10.2526 46.4062 12.4058 44.253 15.0526 44.253C16.0876 44.253 17.0446 44.5856 17.8294 45.1448L27.9444 35.0298C27.3852 34.245 27.0526 33.288 27.0526 32.253C27.0526 29.6062 29.2058 27.453 31.8526 27.453C32.8876 27.453 33.8446 27.7856 34.6294 28.3448L44.7444 18.2298C44.3249 17.6415 44.0447 16.9655 43.9248 16.253H36.5802C36.1976 18.5196 34.2262 20.253 31.8524 20.253C29.4786 20.253 27.5072 18.5196 27.1246 16.253H19.7804C19.3978 18.5196 17.4264 20.253 15.0526 20.253C12.4058 20.253 10.2526 18.0998 10.2526 15.453C10.2526 12.8062 12.4058 10.653 15.0526 10.653C17.4264 10.653 19.3978 12.3864 19.7804 14.653H27.125C27.5076 12.3864 29.479 10.653 31.8528 10.653C34.2266 10.653 36.198 12.3864 36.5806 14.653H43.9252C44.3078 12.3864 46.2792 10.653 48.653 10.653C51.2998 10.653 53.453 12.8062 53.453 15.453C53.453 18.0998 51.2998 20.253 48.653 20.253C47.618 20.253 46.661 19.9204 45.8762 19.3612L35.7612 29.4762C36.3204 30.261 36.653 31.218 36.653 32.253C36.653 34.8998 34.4998 37.053 31.853 37.053C30.818 37.053 29.861 36.7204 29.0762 36.1612L18.9608 46.276C19.3802 46.8643 19.6605 47.5403 19.7804 48.2528H27.125C27.5076 45.9862 29.479 44.2528 31.8528 44.2528C34.2266 44.2528 36.198 45.9862 36.5806 48.2528H43.9252C44.3078 45.9862 46.2792 44.2528 48.653 44.2528C51.2996 44.253 53.4528 46.406 53.4528 49.053ZM18.2528 15.453C18.2528 13.6882 16.8176 12.253 15.0528 12.253C13.288 12.253 11.8528 13.6882 11.8528 15.453C11.8528 17.2178 13.288 18.653 15.0528 18.653C16.8176 18.653 18.2528 17.2178 18.2528 15.453ZM35.0528 15.453C35.0528 13.6882 33.6176 12.253 31.8528 12.253C30.088 12.253 28.6528 13.6882 28.6528 15.453C28.6528 17.2178 30.088 18.653 31.8528 18.653C33.6176 18.653 35.0528 17.2178 35.0528 15.453ZM35.0528 49.053C35.0528 47.2882 33.6176 45.853 31.8528 45.853C30.088 45.853 28.6528 47.2882 28.6528 49.053C28.6528 50.8178 30.088 52.253 31.8528 52.253C33.6176 52.253 35.0528 50.8178 35.0528 49.053ZM51.8528 49.053C51.8528 47.2882 50.4176 45.853 48.6528 45.853C46.888 45.853 45.4528 47.2882 45.4528 49.053C45.4528 50.8178 46.888 52.253 48.6528 52.253C50.4176 52.253 51.8528 50.8178 51.8528 49.053Z" fill="url(#paint0_linear_497_516)"/>
<g clip-path="url(#clip0_497_516)">
<path d="M112.282 42.5982C112.282 43.333 110.882 43.9287 109.156 43.9287C107.43 43.9287 106.03 43.333 106.03 42.5982C106.03 41.8628 107.43 41.2666 109.156 41.2666C110.882 41.2666 112.282 41.8628 112.282 42.5982Z" fill="white"/>
<path d="M106.03 51.6689C106.03 52.4043 107.43 53 109.156 53C110.882 53 112.282 52.4043 112.282 51.6689V51.3388C112.282 51.2373 112.231 51.1426 112.146 51.0859C112.061 51.0303 111.954 51.0205 111.86 51.0605C111.86 51.0605 110.882 51.6645 109.156 51.6645C107.43 51.6645 106.452 51.0605 106.452 51.0605C106.358 51.0205 106.251 51.0302 106.166 51.0859C106.081 51.1426 106.03 51.2373 106.03 51.3388L106.03 51.6689Z" fill="white"/>
<path d="M106.03 49.4077C106.03 50.1431 107.43 50.7383 109.156 50.7383C110.882 50.7383 112.282 50.1431 112.282 49.4077V49.0772C112.282 48.9756 112.231 48.8809 112.146 48.8242C112.061 48.7686 111.954 48.7588 111.86 48.7988C111.86 48.7988 110.882 49.4028 109.156 49.4028C107.43 49.4028 106.452 48.7988 106.452 48.7988C106.358 48.7588 106.251 48.7685 106.166 48.8242C106.081 48.8809 106.03 48.9756 106.03 49.0772L106.03 49.4077Z" fill="white"/>
<path d="M106.03 47.1465C106.03 47.8818 107.43 48.4771 109.156 48.4771C110.882 48.4771 112.282 47.8818 112.282 47.1465V46.8154C112.282 46.7139 112.231 46.6192 112.146 46.5625C112.061 46.5068 111.954 46.4971 111.86 46.5371C111.86 46.5371 110.882 47.1416 109.156 47.1416C107.43 47.1416 106.452 46.5371 106.452 46.5371C106.358 46.4971 106.251 46.5068 106.166 46.5625C106.081 46.6192 106.03 46.7139 106.03 46.8154L106.03 47.1465Z" fill="white"/>
<path d="M106.03 44.8848C106.03 45.6201 107.43 46.2158 109.156 46.2158C110.882 46.2158 112.282 45.6201 112.282 44.8848V44.5547C112.282 44.4526 112.231 44.3584 112.146 44.3017C112.061 44.2461 111.954 44.2363 111.86 44.2763C111.86 44.2763 110.882 44.8799 109.156 44.8799C107.43 44.8799 106.452 44.2763 106.452 44.2763C106.358 44.2363 106.251 44.2461 106.166 44.3017C106.081 44.3584 106.03 44.4526 106.03 44.5547L106.03 44.8848Z" fill="white"/>
<path d="M117.144 39.9189C117.144 40.6533 115.745 41.249 114.019 41.249C112.292 41.249 110.893 40.6533 110.893 39.9189C110.893 39.1831 112.292 38.5879 114.019 38.5879C115.745 38.5879 117.144 39.1831 117.144 39.9189Z" fill="white"/>
<path d="M117.144 48.6582V48.9888C117.144 49.7241 115.744 50.3193 114.021 50.3193C113.615 50.3193 113.231 50.2871 112.877 50.2275V48.8906C113.21 48.9473 113.592 48.9863 114.021 48.9863C115.744 48.9863 116.723 48.3818 116.723 48.3818C116.816 48.3398 116.923 48.3516 117.009 48.4053C117.093 48.4619 117.144 48.5576 117.144 48.6582Z" fill="white"/>
<path d="M117.144 46.3984V46.7295C117.144 47.4644 115.744 48.0596 114.021 48.0596C113.615 48.0596 113.231 48.0274 112.877 47.9678V46.6279C113.21 46.6846 113.592 46.7237 114.021 46.7237C115.744 46.7237 116.723 46.1192 116.723 46.1192C116.816 46.0806 116.923 46.0889 117.009 46.1455C117.093 46.2022 117.144 46.2949 117.144 46.3984Z" fill="white"/>
<path d="M117.144 44.1367V44.4668C117.144 45.2022 115.744 45.7979 114.021 45.7979C113.615 45.7979 113.231 45.7647 112.877 45.7051V44.3652C113.21 44.4219 113.592 44.461 114.021 44.461C115.744 44.461 116.723 43.8565 116.723 43.8565C116.816 43.8179 116.923 43.8267 117.009 43.8838C117.093 43.9395 117.144 44.0352 117.144 44.1367Z" fill="white"/>
<path d="M117.143 41.874V42.2041C117.143 42.9395 115.744 43.5347 114.02 43.5347C113.615 43.5347 113.231 43.502 112.876 43.4429V42.5972C112.876 42.4126 112.838 42.2432 112.764 42.0849C113.121 42.1533 113.541 42.2012 114.02 42.2012C115.49 42.2012 116.419 41.7607 116.66 41.6328C116.702 41.6093 116.723 41.5967 116.723 41.5967C116.815 41.5552 116.922 41.5673 117.009 41.6206C117.047 41.6474 117.08 41.6807 117.101 41.7217C117.128 41.7666 117.143 41.8203 117.143 41.874Z" fill="white"/>
<path d="M109.107 38.3311C109.107 39.0659 107.707 39.6612 105.981 39.6612C104.255 39.6612 102.855 39.0659 102.855 38.3311C102.855 37.5957 104.255 37 105.981 37C107.707 37 109.107 37.5957 109.107 38.3311Z" fill="white"/>
<path d="M105.435 47.375V48.7119C103.97 48.6016 102.856 48.0571 102.856 47.4023V47.0718C102.856 46.9707 102.907 46.8755 102.991 46.8184C103.077 46.7622 103.184 46.7534 103.276 46.792C103.276 46.792 104.05 47.2681 105.435 47.375Z" fill="white"/>
<path d="M105.435 45.1162V46.4492C103.97 46.3393 102.856 45.7949 102.856 45.1397V44.8096C102.856 44.708 102.907 44.6123 102.991 44.5566C103.077 44.5024 103.184 44.4902 103.276 44.5322C103.276 44.5322 104.05 45.0088 105.435 45.1162Z" fill="white"/>
<path d="M105.435 42.8535V44.19C103.97 44.0796 102.856 43.5347 102.856 42.8799V42.5498C102.856 42.4483 102.907 42.353 102.991 42.2969C103.077 42.2398 103.184 42.231 103.276 42.2695C103.276 42.2695 104.05 42.7461 105.435 42.8535Z" fill="white"/>
<path d="M109.105 40.2871V40.6172C109.105 40.6358 109.105 40.6533 109.103 40.6709C107.626 40.6836 106.143 41.1148 105.628 41.9395C104.068 41.8648 102.856 41.3018 102.856 40.6172V40.2871C102.856 40.1856 102.907 40.0908 102.991 40.0342C103.077 39.9775 103.184 39.9687 103.276 40.0102C103.276 40.0102 104.256 40.6142 105.982 40.6142C107.706 40.6142 108.686 40.0102 108.686 40.0102C108.736 39.9863 108.793 39.9805 108.849 39.9863C108.891 39.9922 108.933 40.0102 108.972 40.0342C109.043 40.082 109.087 40.1562 109.1 40.2392C109.105 40.2544 109.105 40.272 109.105 40.2871Z" fill="white"/>
<path d="M112.282 42.5982C112.282 43.333 110.882 43.9287 109.156 43.9287C107.43 43.9287 106.03 43.333 106.03 42.5982C106.03 41.8628 107.43 41.2666 109.156 41.2666C110.882 41.2666 112.282 41.8628 112.282 42.5982Z" fill="white"/>
</g>
<line x1="124" y1="44.5" x2="144" y2="44.5" stroke="white"/>
<line x1="76" y1="44.5" x2="96" y2="44.5" stroke="white"/>
<path d="M74.015 30.12C73.663 30.12 73.215 30.032 72.671 29.856C72.143 29.68 71.615 29.408 71.087 29.04C70.559 28.672 70.119 28.184 69.767 27.576C69.415 26.968 69.239 26.232 69.239 25.368V13.2H71.423V25.368C71.423 25.832 71.527 26.232 71.735 26.568C71.959 26.888 72.223 27.152 72.527 27.36C72.831 27.568 73.119 27.72 73.391 27.816C73.679 27.912 73.887 27.96 74.015 27.96V30.12ZM75.215 30.12V27.96C75.359 27.96 75.567 27.912 75.839 27.816C76.127 27.72 76.423 27.576 76.727 27.384C77.031 27.176 77.287 26.912 77.495 26.592C77.703 26.256 77.807 25.848 77.807 25.368V13.2H79.967V25.368C79.967 26.232 79.791 26.968 79.439 27.576C79.103 28.184 78.671 28.68 78.143 29.064C77.631 29.432 77.103 29.704 76.559 29.88C76.031 30.04 75.583 30.12 75.215 30.12ZM81.8278 30V13.2H84.0117V27.864H90.8518V30H81.8278ZM96.9134 30.12C96.5614 30.12 96.1134 30.032 95.5694 29.856C95.0414 29.68 94.5134 29.408 93.9854 29.04C93.4574 28.672 93.0174 28.184 92.6654 27.576C92.3134 26.968 92.1374 26.232 92.1374 25.368V13.2H94.3214V25.368C94.3214 25.832 94.4254 26.232 94.6334 26.568C94.8574 26.888 95.1214 27.152 95.4254 27.36C95.7294 27.568 96.0174 27.72 96.2894 27.816C96.5774 27.912 96.7854 27.96 96.9134 27.96V30.12ZM98.1134 30.12V27.96C98.2574 27.96 98.4654 27.912 98.7374 27.816C99.0254 27.72 99.3214 27.576 99.6254 27.384C99.9294 27.176 100.185 26.912 100.393 26.592C100.601 26.256 100.705 25.848 100.705 25.368V13.2H102.865V25.368C102.865 26.232 102.689 26.968 102.337 27.576C102.001 28.184 101.569 28.68 101.041 29.064C100.529 29.432 100.001 29.704 99.4574 29.88C98.9294 30.04 98.4814 30.12 98.1134 30.12ZM104.75 30V13.2H106.934V30H104.75ZM108.11 22.464V20.376H110.318C110.782 20.376 111.19 20.304 111.542 20.16C111.894 20 112.166 19.736 112.358 19.368C112.566 18.984 112.67 18.456 112.67 17.784C112.67 17.16 112.574 16.664 112.382 16.296C112.19 15.928 111.918 15.672 111.566 15.528C111.214 15.368 110.79 15.288 110.294 15.288H108.11V13.2H110.606C111.55 13.216 112.334 13.392 112.958 13.728C113.598 14.048 114.078 14.552 114.398 15.24C114.718 15.912 114.878 16.792 114.878 17.88C114.878 19 114.71 19.896 114.374 20.568C114.038 21.224 113.55 21.704 112.91 22.008C112.286 22.296 111.518 22.448 110.606 22.464H108.11ZM122.448 30.12V27.936C122.72 27.936 123.008 27.872 123.312 27.744C123.616 27.616 123.904 27.432 124.176 27.192C124.448 26.952 124.672 26.664 124.848 26.328C125.024 25.976 125.112 25.584 125.112 25.152V18.048C125.112 17.712 125.048 17.384 124.92 17.064C124.808 16.744 124.632 16.448 124.392 16.176C124.168 15.888 123.888 15.664 123.552 15.504C123.232 15.328 122.864 15.24 122.448 15.24V13.08C123.168 13.08 123.824 13.224 124.416 13.512C125.024 13.784 125.536 14.152 125.952 14.616C126.384 15.064 126.712 15.56 126.936 16.104C127.176 16.632 127.296 17.152 127.296 17.664V25.2C127.296 25.984 127.144 26.68 126.84 27.288C126.552 27.896 126.168 28.416 125.688 28.848C125.224 29.264 124.704 29.584 124.128 29.808C123.568 30.016 123.008 30.12 122.448 30.12ZM121.104 30.12C120.592 30.12 120.056 30.008 119.496 29.784C118.936 29.56 118.408 29.24 117.912 28.824C117.432 28.392 117.04 27.872 116.736 27.264C116.432 26.656 116.28 25.968 116.28 25.2V17.664C116.28 17.152 116.392 16.632 116.616 16.104C116.856 15.56 117.184 15.064 117.6 14.616C118.032 14.152 118.544 13.784 119.136 13.512C119.744 13.224 120.408 13.08 121.128 13.08V15.24C120.712 15.24 120.336 15.328 120 15.504C119.68 15.664 119.4 15.888 119.16 16.176C118.936 16.464 118.76 16.768 118.632 17.088C118.52 17.408 118.464 17.728 118.464 18.048V25.152C118.464 25.584 118.552 25.976 118.728 26.328C118.904 26.664 119.128 26.952 119.4 27.192C119.672 27.432 119.96 27.616 120.264 27.744C120.568 27.872 120.848 27.936 121.104 27.936V30.12ZM135.386 30.12V27.936C135.658 27.936 135.946 27.872 136.25 27.744C136.554 27.616 136.842 27.432 137.114 27.192C137.386 26.952 137.61 26.664 137.786 26.328C137.962 25.976 138.05 25.584 138.05 25.152V18.048C138.05 17.712 137.986 17.384 137.858 17.064C137.746 16.744 137.57 16.448 137.33 16.176C137.106 15.888 136.826 15.664 136.49 15.504C136.17 15.328 135.802 15.24 135.386 15.24V13.08C136.106 13.08 136.762 13.224 137.354 13.512C137.962 13.784 138.474 14.152 138.89 14.616C139.322 15.064 139.65 15.56 139.874 16.104C140.114 16.632 140.234 17.152 140.234 17.664V25.2C140.234 25.984 140.082 26.68 139.778 27.288C139.49 27.896 139.106 28.416 138.626 28.848C138.162 29.264 137.642 29.584 137.066 29.808C136.506 30.016 135.946 30.12 135.386 30.12ZM134.042 30.12C133.53 30.12 132.994 30.008 132.434 29.784C131.874 29.56 131.346 29.24 130.85 28.824C130.37 28.392 129.978 27.872 129.674 27.264C129.37 26.656 129.218 25.968 129.218 25.2V17.664C129.218 17.152 129.33 16.632 129.554 16.104C129.794 15.56 130.122 15.064 130.538 14.616C130.97 14.152 131.482 13.784 132.074 13.512C132.682 13.224 133.346 13.08 134.066 13.08V15.24C133.65 15.24 133.274 15.328 132.938 15.504C132.618 15.664 132.338 15.888 132.098 16.176C131.874 16.464 131.698 16.768 131.57 17.088C131.458 17.408 131.402 17.728 131.402 18.048V25.152C131.402 25.584 131.49 25.976 131.666 26.328C131.842 26.664 132.066 26.952 132.338 27.192C132.61 27.432 132.898 27.616 133.202 27.744C133.506 27.872 133.786 27.936 134.042 27.936V30.12ZM142.179 30V13.2H144.363V27.864H151.203V30H142.179Z" fill="white"/>
<defs>
<linearGradient id="paint0_linear_497_516" x1="11.6602" y1="52.4456" x2="52.0454" y2="12.0604" gradientUnits="userSpaceOnUse">
<stop stop-color="#107EFF"/>
<stop offset="0.0001" stop-color="#107EFF"/>
<stop offset="1" stop-color="#8F16FF"/>
</linearGradient>
<clipPath id="clip0_497_516">
<rect width="16" height="16" fill="white" transform="translate(102 37)"/>
</clipPath>
</defs>
</svg>
