<svg width="108" height="40" viewBox="0 0 108 40" fill="none" xmlns="http://www.w3.org/2000/svg">
<path d="M2.01047 33.74C1.95714 29.3 1.93047 24.8467 1.93047 20.38C1.93047 15.9 1.95714 11.44 2.01047 7H5.07047C5.0438 9.96 5.01714 12.9733 4.99047 16.04C4.97714 19.0933 4.97714 22.1467 4.99047 25.2C5.0038 28.2533 5.0238 31.2667 5.05047 34.24C5.05047 34.9333 5.1838 35.4733 5.45047 35.86C5.73047 36.2467 6.1638 36.5 6.75047 36.62V39.26C5.0838 39.14 3.8838 38.6467 3.15047 37.78C2.41714 36.9 2.03714 35.5533 2.01047 33.74ZM8.51047 39.26V36.62C9.0838 36.5 9.49714 36.2467 9.75047 35.86C10.0171 35.4733 10.1505 34.9333 10.1505 34.24C10.1771 31.2667 10.1971 28.2533 10.2105 25.2C10.2371 22.1467 10.2438 19.0933 10.2305 16.04C10.2305 12.9733 10.2038 9.96 10.1505 7H13.2305C13.2838 11.44 13.3105 15.9 13.3105 20.38C13.3105 24.8467 13.2838 29.3 13.2305 33.74C13.2171 35.5533 12.8371 36.9 12.0905 37.78C11.3571 38.6467 10.1638 39.14 8.51047 39.26ZM17.0561 39V7H20.1161V39H17.0561ZM21.8961 39V36.24H26.6961V39H21.8961ZM28.9245 33.74C28.8712 29.3 28.8445 24.8467 28.8445 20.38C28.8445 15.9 28.8712 11.44 28.9245 7H31.9845C31.9579 9.96 31.9312 12.9733 31.9045 16.04C31.8912 19.0933 31.8912 22.1467 31.9045 25.2C31.9179 28.2533 31.9379 31.2667 31.9645 34.24C31.9645 34.9333 32.0979 35.4733 32.3645 35.86C32.6445 36.2467 33.0779 36.5 33.6645 36.62V39.26C31.9979 39.14 30.7979 38.6467 30.0645 37.78C29.3312 36.9 28.9512 35.5533 28.9245 33.74ZM35.4245 39.26V36.62C35.9979 36.5 36.4112 36.2467 36.6645 35.86C36.9312 35.4733 37.0645 34.9333 37.0645 34.24C37.0912 31.2667 37.1112 28.2533 37.1245 25.2C37.1512 22.1467 37.1579 19.0933 37.1445 16.04C37.1445 12.9733 37.1179 9.96 37.0645 7H40.1445C40.1979 11.44 40.2245 15.9 40.2245 20.38C40.2245 24.8467 40.1979 29.3 40.1445 33.74C40.1312 35.5533 39.7512 36.9 39.0045 37.78C38.2712 38.6467 37.0779 39.14 35.4245 39.26ZM43.9702 39V7H47.0302V39H43.9702ZM48.8102 26.78V24.02H49.3102C50.2035 24.02 50.8568 23.8133 51.2702 23.4C51.6835 22.9733 51.9102 22.3133 51.9502 21.42C51.9902 20.42 52.0168 19.4133 52.0302 18.4C52.0435 17.3867 52.0435 16.38 52.0302 15.38C52.0168 14.3667 51.9902 13.36 51.9502 12.36C51.9102 11.4667 51.6835 10.8133 51.2702 10.4C50.8702 9.97333 50.2235 9.76 49.3302 9.76H48.8102V7H49.3302C51.2902 7 52.7102 7.42667 53.5902 8.28C54.4702 9.13333 54.9502 10.54 55.0302 12.5C55.0835 14.2067 55.1102 15.74 55.1102 17.1C55.1102 18.4467 55.0835 19.84 55.0302 21.28C54.9502 23.24 54.4635 24.6467 53.5702 25.5C52.6902 26.3533 51.2702 26.78 49.3102 26.78H48.8102ZM62.828 39.26C61.1613 39.14 59.9546 38.6467 59.208 37.78C58.4613 36.9133 58.0746 35.5667 58.048 33.74C58.008 31.9 57.9813 30.0933 57.968 28.32C57.9546 26.5467 57.948 24.7733 57.948 23C57.948 21.2267 57.9546 19.4533 57.968 17.68C57.9813 15.9067 58.008 14.1 58.048 12.26C58.0746 10.4333 58.4613 9.08667 59.208 8.22C59.9546 7.35333 61.1613 6.86 62.828 6.74V9.38C62.2413 9.48667 61.8146 9.73333 61.548 10.12C61.2813 10.4933 61.1346 11.04 61.108 11.76C61.0546 13.6 61.0146 15.4533 60.988 17.32C60.9746 19.1733 60.968 21.04 60.968 22.92C60.968 24.8 60.9813 26.6867 61.008 28.58C61.0346 30.46 61.068 32.3467 61.108 34.24C61.1346 34.96 61.2813 35.5067 61.548 35.88C61.8146 36.2533 62.2413 36.5 62.828 36.62V39.26ZM64.588 39.26V36.62C65.1746 36.5 65.6013 36.2533 65.868 35.88C66.1346 35.5067 66.2746 34.96 66.288 34.24C66.3546 32.3467 66.3946 30.46 66.408 28.58C66.4346 26.6867 66.4413 24.8 66.428 22.92C66.428 21.04 66.4146 19.1733 66.388 17.32C66.3746 15.4533 66.3413 13.6 66.288 11.76C66.2746 11.04 66.1346 10.4933 65.868 10.12C65.6013 9.74666 65.1746 9.5 64.588 9.38V6.74C66.268 6.84667 67.4746 7.34 68.208 8.22C68.9413 9.08667 69.328 10.4333 69.368 12.26C69.408 14.1 69.4346 15.9133 69.448 17.7C69.4613 19.4867 69.468 21.26 69.468 23.02C69.468 24.78 69.4613 26.5467 69.448 28.32C69.4346 30.0933 69.408 31.9 69.368 33.74C69.328 35.5667 68.9413 36.9133 68.208 37.78C67.4746 38.6467 66.268 39.14 64.588 39.26ZM77.9061 39.26C76.2394 39.14 75.0328 38.6467 74.2861 37.78C73.5394 36.9133 73.1528 35.5667 73.1261 33.74C73.0861 31.9 73.0594 30.0933 73.0461 28.32C73.0328 26.5467 73.0261 24.7733 73.0261 23C73.0261 21.2267 73.0328 19.4533 73.0461 17.68C73.0594 15.9067 73.0861 14.1 73.1261 12.26C73.1528 10.4333 73.5394 9.08667 74.2861 8.22C75.0328 7.35333 76.2394 6.86 77.9061 6.74V9.38C77.3194 9.48667 76.8928 9.73333 76.6261 10.12C76.3594 10.4933 76.2128 11.04 76.1861 11.76C76.1328 13.6 76.0928 15.4533 76.0661 17.32C76.0528 19.1733 76.0461 21.04 76.0461 22.92C76.0461 24.8 76.0594 26.6867 76.0861 28.58C76.1128 30.46 76.1461 32.3467 76.1861 34.24C76.2128 34.96 76.3594 35.5067 76.6261 35.88C76.8928 36.2533 77.3194 36.5 77.9061 36.62V39.26ZM79.6661 39.26V36.62C80.2528 36.5 80.6794 36.2533 80.9461 35.88C81.2128 35.5067 81.3528 34.96 81.3661 34.24C81.4328 32.3467 81.4728 30.46 81.4861 28.58C81.5128 26.6867 81.5194 24.8 81.5061 22.92C81.5061 21.04 81.4928 19.1733 81.4661 17.32C81.4528 15.4533 81.4194 13.6 81.3661 11.76C81.3528 11.04 81.2128 10.4933 80.9461 10.12C80.6794 9.74666 80.2528 9.5 79.6661 9.38V6.74C81.3461 6.84667 82.5528 7.34 83.2861 8.22C84.0194 9.08667 84.4061 10.4333 84.4461 12.26C84.4861 14.1 84.5128 15.9133 84.5261 17.7C84.5394 19.4867 84.5461 21.26 84.5461 23.02C84.5461 24.78 84.5394 26.5467 84.5261 28.32C84.5128 30.0933 84.4861 31.9 84.4461 33.74C84.4061 35.5667 84.0194 36.9133 83.2861 37.78C82.5528 38.6467 81.3461 39.14 79.6661 39.26ZM88.3842 39V7H91.4442V39H88.3842ZM93.2242 39V36.24H98.0242V39H93.2242ZM101.152 39V35.16H105.932V39H101.152Z" fill="white"/>
</svg>
