<svg width="30" height="30" viewBox="0 0 30 30" fill="none" xmlns="http://www.w3.org/2000/svg">
<path d="M15 7.5C15.6904 7.5 16.25 8.05965 16.25 8.75V16.25C16.25 16.9404 15.6904 17.5 15 17.5C14.3096 17.5 13.75 16.9404 13.75 16.25V8.75C13.75 8.05965 14.3096 7.5 15 7.5Z" fill="white"/>
<path d="M15 20C14.3096 20 13.75 20.5596 13.75 21.25C13.75 21.9404 14.3096 22.5 15 22.5C15.6904 22.5 16.25 21.9404 16.25 21.25C16.25 20.5596 15.6904 20 15 20Z" fill="white"/>
<path fill-rule="evenodd" clip-rule="evenodd" d="M15 2.5C8.09644 2.5 2.5 8.09644 2.5 15C2.5 21.9035 8.09644 27.5 15 27.5C21.9035 27.5 27.5 21.9035 27.5 15C27.5 8.09644 21.9035 2.5 15 2.5ZM5 15C5 20.5229 9.47715 25 15 25C20.5229 25 25 20.5229 25 15C25 9.47715 20.5229 5 15 5C9.47715 5 5 9.47715 5 15Z" fill="white"/>
</svg>
