<svg width="30" height="30" viewBox="0 0 30 30" fill="none" xmlns="http://www.w3.org/2000/svg">
<path d="M12.8033 20.3921L7.5 15.0888L9.26776 13.321L12.8033 16.8566L19.8744 9.78551L21.6421 11.5533L12.8033 20.3921Z" fill="#107EFF"/>
<path fill-rule="evenodd" clip-rule="evenodd" d="M1.25 15C1.25 7.40609 7.40609 1.25 15 1.25C22.5939 1.25 28.75 7.40609 28.75 15C28.75 22.5939 22.5939 28.75 15 28.75C7.40609 28.75 1.25 22.5939 1.25 15ZM15 26.25C8.7868 26.25 3.75 21.2133 3.75 15C3.75 8.7868 8.7868 3.75 15 3.75C21.2133 3.75 26.25 8.7868 26.25 15C26.25 21.2133 21.2133 26.25 15 26.25Z" fill="#107EFF"/>
</svg>
