<svg width="28" height="26" viewBox="0 0 28 26" fill="none" xmlns="http://www.w3.org/2000/svg">
<path d="M24.3125 8.63875C25.4175 8.99375 26.1875 10.0488 26.1875 11.26V16.6175C26.1875 18.0375 25.1288 19.2425 23.7125 19.3588C23.2875 19.3925 22.8625 19.4238 22.4375 19.4488V23.3125L18.6875 19.5625C16.995 19.5625 15.32 19.4938 13.6625 19.3588C13.3017 19.3296 12.9507 19.2266 12.6312 19.0563M24.3125 8.63875C24.1194 8.57658 23.9197 8.53674 23.7175 8.52C20.3699 8.2421 17.0051 8.2421 13.6575 8.52C12.2437 8.6375 11.1875 9.84125 11.1875 11.26V16.6175C11.1875 17.6638 11.7625 18.5925 12.6312 19.0563M24.3125 8.63875V6.29625C24.3125 4.27 22.8725 2.51375 20.8625 2.2525C18.276 1.91724 15.6706 1.74939 13.0625 1.75C10.4187 1.75 7.815 1.92125 5.2625 2.2525C3.2525 2.51375 1.8125 4.27 1.8125 6.29625V14.0788C1.8125 16.105 3.2525 17.8613 5.2625 18.1225C5.98375 18.2163 6.70875 18.2975 7.4375 18.365V24.25L12.6312 19.0563" stroke="white" stroke-width="2" stroke-linecap="round" stroke-linejoin="round"/>
</svg>
